<?xml version="1.0" encoding="UTF-8" standalone="no"?>
<svg
   xmlns:dc="http://purl.org/dc/elements/1.1/"
   xmlns:cc="http://creativecommons.org/ns#"
   xmlns:rdf="http://www.w3.org/1999/02/22-rdf-syntax-ns#"
   xmlns:svg="http://www.w3.org/2000/svg"
   xmlns="http://www.w3.org/2000/svg"
   xmlns:sodipodi="http://sodipodi.sourceforge.net/DTD/sodipodi-0.dtd"
   xmlns:inkscape="http://www.inkscape.org/namespaces/inkscape"
   version="1.1"
   x="0"
   y="0"
   width="130"
   height="130"
   viewBox="0 0 130 130"
   id="svg2"
   inkscape:version="0.91 r13725"
   sodipodi:docname="macports-avatar.svg"
   inkscape:export-filename="/Users/raimue/Desktop/macports-avatar.png"
   inkscape:export-xdpi="90"
   inkscape:export-ydpi="90">
  <metadata
     id="metadata27">
    <rdf:RDF>
      <cc:Work
         rdf:about="">
        <dc:format>image/svg+xml</dc:format>
        <dc:type
           rdf:resource="http://purl.org/dc/dcmitype/StillImage" />
        <dc:title></dc:title>
      </cc:Work>
    </rdf:RDF>
  </metadata>
  <defs
     id="defs25" />
  <sodipodi:namedview
     pagecolor="#ffffff"
     bordercolor="#666666"
     borderopacity="1"
     objecttolerance="10"
     gridtolerance="10"
     guidetolerance="10"
     inkscape:pageopacity="0"
     inkscape:pageshadow="2"
     inkscape:window-width="1288"
     inkscape:window-height="1078"
     id="namedview23"
     showgrid="false"
     inkscape:zoom="2.5888609"
     inkscape:cx="-1.2948275"
     inkscape:cy="-19.406457"
     inkscape:window-x="2514"
     inkscape:window-y="95"
     inkscape:window-maximized="0"
     inkscape:current-layer="Layer_2"
     fit-margin-top="0"
     fit-margin-left="0"
     fit-margin-right="0"
     fit-margin-bottom="0"
     units="px" />
  <g
     id="Layer_2"
     transform="translate(-99.0855,76.234992)">
    <path
       d="m 174.8925,-52.489992 39.696,0 c 6.957,0 12.596,6.103 12.596,13.632 l 0,55.246 c 0,7.528 -5.639,13.632 -12.596,13.632 l -39.696,0 c -6.956,0 -12.596,-6.104 -12.596,-13.632 l 0,-55.246 c 0,-7.529 5.64,-13.632 12.596,-13.632 z"
       id="path5"
       inkscape:connector-curvature="0"
       style="fill:#1e79e9"
       sodipodi:nodetypes="sssssssss" />
    <path
       d="m 145.6865,14.040008 11.1,0 -2.7,-50.55 -15,0 -5.325,16.8 c -1.725,5.625 -3.45,12.3 -4.8,18.15 l -0.3,0 c -1.125,-5.925 -2.625,-12.225 -4.275,-18.075 l -4.95,-16.875 -15.225,0 -3.225,50.55 10.575,0 0.975,-19.2 c 0.3,-6.3 0.6,-14.1 0.825,-20.925 l 0.15,0 c 1.275,6.6 2.925,13.8 4.575,19.8 l 5.4,19.5 8.925,0 6.15,-19.725 c 1.95,-5.925 4.05,-13.125 5.7,-19.575 l 0.15,0 c 0,7.35 0.225,14.7 0.45,20.775 z"
       id="path7"
       inkscape:connector-curvature="0"
       style="fill:#1e79e9" />
    <path
       d="m 178.3925,14.227508 11.325,0 0,-18.15 c 1.05,0.225 2.4,0.3 3.9,0.3 6.75,0 12.525,-1.725 16.425,-5.325 3.075,-2.775 4.65,-7.05 4.65,-12 0,-4.95 -2.1,-9.15 -5.4,-11.7 -3.375,-2.7 -8.4,-4.05 -15.45,-4.05 -6.975,0 -11.925,0.45 -15.45,1.05 z m 11.325,-41.85 c 0.825,-0.225 2.4,-0.375 4.65,-0.375 5.775,0 9,2.775 9,7.425 0,5.1 -3.75,8.175 -9.825,8.175 -1.725,0 -2.85,-0.075 -3.825,-0.3 z"
       id="path13"
       inkscape:connector-curvature="0"
       style="fill:#ffffff" />
  </g>
</svg>
